<?xml version="1.0" encoding="UTF-8"?>
<svg id="Layer_1" xmlns="http://www.w3.org/2000/svg" version="1.1" viewBox="0 0 184 77">
  <!-- Generator: Adobe Illustrator 29.5.0, SVG Export Plug-In . SVG Version: 2.1.0 Build 137)  -->
  <defs>
    <style>
      .st0 {
        fill: none;
      }

      .st1 {
        fill: #16291d;
      }

      .st2 {
        fill: #74c044;
      }
    </style>
  </defs>
  <rect class="st0" y="0" width="184" height="77"/>
  <g>
    <path class="st2" d="M44.2,25.1c-.5-1.2-1.2-2.4-2.1-3.3l-11.9-11.9L20.4,0,2.7,17.7c-1.7,1.7-2.7,4.1-2.7,6.5v4.3L20.4,8.2l17.1,17.2c1.8,1.8,1.8,4.7,0,6.5l-.8.8-16.3-16.3-5.8,5.8-11.9,11.9c-.1.1-.3.3-.4.4,0,0,0,0,0,0-.8.9-1.3,1.8-1.7,2.9-.4,1-.6,2.1-.6,3.2v.5c0,1.1.2,2.2.6,3.2.5,1.2,1.2,2.4,2.1,3.3l.2.2,1.1,1.1c1.7,1.7,4.1,2.7,6.5,2.7h4.3l-6.8-6.8-.8-.8c-1.8-1.8-1.8-4.7,0-6.5l9.9-10,3.1-3.1,12.2,12.3,4.1,4.1,4.1-4.1,1.4-1.4c.9-.9,1.6-2.1,2.1-3.3.4-1,.6-2.1.6-3.2v-.5c0-1.1-.2-2.2-.6-3.2"/>
    <path class="st1" d="M32.8,68.8l-1.7-5.7h-8.5l-1.7,5.7h-4.9l8-24.8h6.2l7.9,24.8h-5.2ZM26.9,48.4h0l-3.2,10.8h6.4l-3.2-10.8Z"/>
    <path class="st1" d="M47,77c-3.1,0-5.2-.9-6.4-1.4l.2-4.1c1.3.7,3.6,1.6,5.6,1.6,3.2,0,5-1.4,5-4.9v-1.8h0c-1,1.2-2.4,2.5-5.3,2.5-5.2,0-6.9-3.9-6.9-9.5s1.9-9.6,7.2-9.6,4.4,1.4,5.2,2.7h0l.2-2.2h4.3v17.9c0,5.8-3.7,8.8-9.2,8.8M51.5,57.9c0-2.5-1.7-4.3-3.6-4.3s-3.7,2-3.7,4.6v2.2c0,2.9,1.4,4.5,3.6,4.5s3.7-1.9,3.7-4.2v-2.8Z"/>
    <path class="st1" d="M70.9,54.3s-.5-.1-1.4-.1c-2.7,0-4.5,2-4.5,4.2v10.4h-4.8v-18.6h4.6v2.7h0c.4-.8,2-3.3,5.3-3.3s.9,0,.9,0l-.2,4.5h0Z"/>
    <path class="st1" d="M110.6,68.8l-1.7-5.7h-8.5l-1.7,5.7h-4.9l8-24.8h6.2l7.9,24.8h-5.2ZM104.7,48.4h0l-3.2,10.8h6.4l-3.2-10.8h0Z"/>
    <path class="st1" d="M124.1,54.1v14.7h-4.8v-14.7h-4v-3.9h4v-2.3c0-4,2.4-5.9,6.2-5.9s2.9.4,2.9.4l-.2,3.7s-.9-.2-1.7-.2c-1.5,0-2.4.9-2.4,2.6v1.7h4.6v3.9h-4.6Z"/>
    <path class="st1" d="M141.5,54.3s-.5-.1-1.4-.1c-2.7,0-4.5,2-4.5,4.2v10.4h-4.8v-18.6h4.6v2.7h0c.4-.8,2-3.3,5.3-3.3s.9,0,.9,0l-.2,4.5h0Z"/>
    <path class="st1" d="M146.6,48.2c-1.7,0-3-1.3-3-3s1.3-3,3-3,3,1.3,3,3-1.3,3-3,3ZM144.2,50.3h4.8v18.6h-4.8v-18.6Z"/>
    <path class="st1" d="M77.6,48.2c-1.7,0-3-1.3-3-3s1.3-3,3-3,3,1.3,3,3-1.3,3-3,3ZM75.2,50.3h4.8v18.6h-4.8v-18.6Z"/>
    <path class="st1" d="M159.9,69.4c-6.1,0-7.8-3.9-7.8-9.8s2.1-9.8,8.3-9.8,4.3.9,4.7,1l-.2,3.9c-.4-.2-2.1-1-3.9-1s-3.9,1.7-3.9,4.9v2c0,3.4,1.8,4.9,3.9,4.9s3-.4,4.2-1l.3,3.8c-1.5.7-3.1,1.2-5.4,1.2"/>
    <path class="st1" d="M179.7,68.8l-.3-2.3h0c-1,1.5-2.4,2.9-5.3,2.9-5.1,0-7-4-7-9.8s2-9.8,7.2-9.8,4.4,1.4,5.1,2.8h0l.2-2.3h4.3v18.6h-4.3,0ZM179.3,58.1c0-2.7-1.6-4.5-3.5-4.5s-3.7,2.1-3.7,4.8v2.3c0,3,1.3,4.7,3.5,4.7s3.7-2,3.7-4.3v-3h0Z"/>
  </g>
</svg>