<svg width="45" height="52" viewBox="0 0 45 52" fill="none" xmlns="http://www.w3.org/2000/svg" role="img" aria-label="Agri Africa">
  <path d="M44.2397 25.1003C43.7821 23.8731 43.0723 22.7436 42.1303 21.7996L30.268 9.91199L20.3805 0L2.70148 17.7168C0.972263 19.4498 0 21.7996 0 24.2507V28.5931L20.3805 8.16896L37.4977 25.3228C39.2976 27.1265 39.2976 30.0529 37.4977 31.8566L36.6836 32.6725L20.3805 16.3346L14.5638 22.1638L2.70148 34.0548C2.57364 34.1829 2.44916 34.3177 2.32805 34.4526L2.32132 34.4593C1.56773 35.3157 0.98572 36.3001 0.592105 37.3554C0.211947 38.3803 0 39.4727 0 40.5886V41.1011C0 42.217 0.211947 43.3093 0.592105 44.3343C1.04964 45.5615 1.75613 46.6909 2.69812 47.6349L4.07409 49.0104C5.8033 50.7433 8.14817 51.7177 10.594 51.7177H14.9271L8.15154 44.9276L7.33739 44.1117C5.53753 42.308 5.53753 39.3816 7.33739 37.5779L20.3805 24.5069L36.6836 40.8482L42.1337 35.3831C43.0756 34.4391 43.7821 33.3097 44.243 32.0825C44.6265 31.0576 44.8351 29.9652 44.8351 28.8493V28.3368C44.8351 27.2209 44.6232 26.1285 44.243 25.1036" fill="#74C044"/>
</svg>
